# xmcd
#
# Track frame offsets: 
#        150
#        19494
#        35091
#        50705
#        70006
#        90670
#        110523
#        134154
#        151475
#        172840
#        202986
#
# Disc length: 3092 seconds
#
# Revision: 0
# Processed by: cddbd v1.5.2PL0 Copyright (c) Steve Scherf et al.
# Submitted via: ExactAudioCopyFreeDBPlugin 1.0
#
DISCID=9b0c120b
DTITLE=Uncle Lucius - And You Are Me
DYEAR=2012
DGENRE=Country
TTITLE0=Set Ourselves Free
TTITLE1=Pocket Full Of Misery
TTITLE2=Rosalia
TTITLE3=Willing Wasted Time
TTITLE4=Keep The Wolves Away
TTITLE5=Somewhere Else
TTITLE6=All We've Got Is Now
TTITLE7=New Drug
TTITLE8=Just Keep Walking
TTITLE9=There Is No End
TTITLE10=I Am You
EXTD=
EXTT0=
EXTT1=
EXTT2=
EXTT3=
EXTT4=
EXTT5=
EXTT6=
EXTT7=
EXTT8=
EXTT9=
EXTT10=
PLAYORDER=
